# xmcd
#
# Track frame offsets: 
#        150
#        22960
#        39647
#        61587
#        83644
#        101142
#        126520
#        144882
#        170225
#        194953
#        225196
#
# Disc length: 3344 seconds
#
# Revision: 0
# Processed by: cddbd v1.5.2PL0 Copyright (c) Steve Scherf et al.
# Submitted via: ExactAudioCopy v0.99pb3
#
DISCID=910d0e0b
DTITLE=Cafe R&B - Blues And All The Rest
DYEAR=2004
DGENRE=Blues
TTITLE0=Our Town
TTITLE1=I Get Higher
TTITLE2=Born Under a Bad Sign
TTITLE3=Snatch It Back and Hold It
TTITLE4=How Long Blues
TTITLE5=My Love
TTITLE6=Wp
TTITLE7=My Tears
TTITLE8=My Baby
TTITLE9=Killing Floor
TTITLE10=Something Down
EXTD=
EXTT0=
EXTT1=
EXTT2=
EXTT3=
EXTT4=
EXTT5=
EXTT6=
EXTT7=
EXTT8=
EXTT9=
EXTT10=
PLAYORDER=
